<svg width="93" height="101" viewBox="0 0 93 101" fill="none" xmlns="http://www.w3.org/2000/svg">
<path d="M32.8021 22.2758C19.7339 19.8957 9.40123 22.3874 5.28322 29.5192C2.21028 34.8412 3.08751 41.8985 7.41222 49.4419C7.49972 49.5947 7.61647 49.7288 7.7558 49.8364C7.89514 49.9441 8.05433 50.0232 8.22427 50.0693C8.39421 50.1154 8.57157 50.1276 8.74621 50.1051C8.92085 50.0826 9.08935 50.0259 9.24207 49.9383C9.55049 49.7613 9.77602 49.4692 9.8691 49.126C9.96218 48.7828 9.9152 48.4167 9.73847 48.1082C5.8424 41.3138 5.08309 35.2234 7.60448 30.8592C11.0249 24.9345 20.2403 22.712 32.3209 24.9127C32.5393 24.9559 32.765 24.944 32.9776 24.8781C33.1903 24.8122 33.3832 24.6945 33.5389 24.5354C33.6946 24.3764 33.8083 24.181 33.8697 23.9671C33.9311 23.7531 33.9382 23.5272 33.8905 23.3098C33.8328 23.0484 33.6982 22.8102 33.504 22.626C33.3098 22.4417 33.0649 22.3199 32.8008 22.276L32.8021 22.2758ZM14.2079 58.61C19.4915 64.4171 26.3565 69.8636 34.1857 74.3842C53.1416 85.3286 73.3221 88.2539 83.2674 81.4722C83.5539 81.2691 83.7492 80.9616 83.8113 80.616C83.8735 80.2704 83.7975 79.9142 83.5997 79.624C83.4019 79.3339 83.0982 79.1329 82.7538 79.0644C82.4094 78.9958 82.0518 79.0652 81.758 79.2576C72.8565 85.3273 53.6866 82.5482 35.526 72.0629C27.93 67.677 21.283 62.4037 16.1906 56.807C16.0135 56.6061 15.7804 56.4628 15.5211 56.3955C15.2619 56.3282 14.9885 56.3401 14.7361 56.4296C14.5263 56.5041 14.3383 56.6298 14.1892 56.7952C14.0402 56.9606 13.9347 57.1605 13.8822 57.3769C13.8298 57.5933 13.8321 57.8194 13.889 58.0347C13.9458 58.25 14.0555 58.4477 14.2079 58.61Z" fill="#2DD0ED"/>
<path d="M80.096 56.9799C88.6524 46.8718 91.6405 36.7046 87.5315 29.5869C84.5076 24.3498 78.1146 21.5847 69.6196 21.4744C69.2643 21.4698 68.9216 21.6065 68.667 21.8544C68.4123 22.1023 68.2665 22.4411 68.2615 22.7965C68.2576 23.0616 68.3326 23.3219 68.4769 23.5444C68.6213 23.7668 68.8285 23.9413 69.0723 24.0456C69.234 24.1152 69.4079 24.1523 69.5839 24.1546C77.2245 24.2534 82.7327 26.6361 85.2105 30.9272C88.623 36.8393 85.9593 45.9061 78.0505 55.2488C77.9328 55.3825 77.8428 55.5384 77.7861 55.7072C77.7293 55.8761 77.7068 56.0546 77.7199 56.2323C77.733 56.41 77.7814 56.5833 77.8623 56.742C77.9432 56.9007 78.055 57.0417 78.191 57.1567C78.3271 57.2715 78.4847 57.3581 78.6546 57.4114C78.8245 57.4648 79.0033 57.4838 79.1805 57.4673C79.3578 57.4509 79.5301 57.3993 79.6873 57.3156C79.8444 57.2319 79.9834 57.1178 80.096 56.9799ZM58.1058 22.7222C50.3688 24.3803 42.1344 27.621 34.2267 32.1866C14.6568 43.485 1.89117 60.1437 3.66481 72.2243C3.68686 72.4014 3.74407 72.5723 3.83308 72.727C3.92208 72.8817 4.04109 73.017 4.18311 73.1251C4.32513 73.2332 4.48731 73.3118 4.66013 73.3563C4.83294 73.4009 5.01291 73.4104 5.18948 73.3845C5.36604 73.3585 5.53564 73.2975 5.68832 73.2051C5.841 73.1127 5.97369 72.9908 6.07859 72.8464C6.1835 72.702 6.25851 72.5382 6.29922 72.3644C6.33994 72.1907 6.34553 72.0105 6.31568 71.8346C4.74217 61.1095 16.842 45.3175 35.5656 34.5078C43.2372 30.0783 51.2114 26.9413 58.6676 25.3421C59.0045 25.2574 59.2955 25.0452 59.479 24.7502C59.6626 24.4553 59.7245 24.1006 59.6516 23.7609C59.5788 23.4212 59.3769 23.123 59.0885 22.9293C58.8002 22.7355 58.4478 22.6613 58.1058 22.7222Z" fill="#2DD0ED"/>
<path d="M26.4025 80.599C30.8782 93.0901 38.196 100.782 46.4268 100.782C52.4285 100.782 57.9816 96.6912 62.3123 89.4876C62.4094 89.3367 62.4752 89.1679 62.5059 88.9911C62.5366 88.8143 62.5315 88.6331 62.4909 88.4584C62.4402 88.2394 62.3351 88.0367 62.1855 87.8689C62.0358 87.7012 61.8463 87.5739 61.6345 87.4986C61.4227 87.4233 61.1954 87.4026 60.9734 87.4382C60.7515 87.4739 60.5421 87.5649 60.3645 87.7027C60.2227 87.8128 60.1045 87.9499 60.0168 88.1064C56.1244 94.5803 51.3435 98.1032 46.4268 98.1032C39.5912 98.1032 33.0624 91.2421 28.9265 79.6949C28.8697 79.5258 28.7799 79.3697 28.6621 79.2357C28.5444 79.1016 28.4011 78.9924 28.2407 78.9144C28.0802 78.8366 27.9059 78.7915 27.7278 78.7817C27.5497 78.7723 27.3715 78.7985 27.2037 78.8588C27.0358 78.9191 26.8817 79.0122 26.7502 79.1327C26.6188 79.2533 26.5127 79.3988 26.4382 79.5608C26.3636 79.7228 26.3221 79.8981 26.3161 80.0763C26.3103 80.2546 26.3401 80.4323 26.4038 80.599H26.4025ZM67.2689 78.1545C69.5849 70.755 70.8278 62.2164 70.8278 53.3188C70.8278 31.1195 63.0587 11.9816 51.9912 7.06727C51.6677 6.9312 51.3038 6.92741 50.9776 7.0567C50.6514 7.18599 50.3889 7.43806 50.2465 7.75877C50.1041 8.07947 50.0931 8.44324 50.216 8.77193C50.3389 9.10062 50.5857 9.36802 50.9036 9.5167C60.7745 13.9002 68.1488 32.0622 68.1488 53.3188C68.1488 61.9496 66.9433 70.219 64.7118 77.3545C64.6541 77.5237 64.6308 77.7027 64.6435 77.8811C64.6561 78.0594 64.7043 78.2334 64.7854 78.3927C64.9073 78.6328 65.0987 78.8306 65.3347 78.9604C65.5707 79.0901 65.8403 79.1457 66.1083 79.12C66.3764 79.0943 66.6305 78.9884 66.8375 78.8162C67.0445 78.644 67.1949 78.4134 67.2689 78.1545ZM92.5062 76.8426C92.5116 75.9969 92.3497 75.1585 92.0298 74.3757C91.7099 73.5928 91.2383 72.881 90.6423 72.2811C90.0462 71.6812 89.3373 71.2051 88.5565 70.8802C87.7757 70.5554 86.9384 70.3881 86.0927 70.3882C85.247 70.3882 84.4097 70.5555 83.6289 70.8804C82.8481 71.2053 82.1393 71.6814 81.5432 72.2813C80.9471 72.8812 80.4756 73.5931 80.1557 74.3759C79.8359 75.1588 79.674 75.9972 79.6794 76.8429C79.6903 78.5367 80.3708 80.1574 81.5724 81.3513C82.774 82.5452 84.3991 83.2153 86.0929 83.2152C87.7868 83.2152 89.4119 82.5451 90.6134 81.3511C91.815 80.1572 92.4954 78.5364 92.5062 76.8426ZM89.8259 76.8426C89.8257 77.8327 89.4323 78.7821 88.7322 79.4822C88.0322 80.1822 87.0827 80.5756 86.0927 80.5758C85.3544 80.5758 84.6327 80.3568 84.0189 79.9466C83.405 79.5364 82.9266 78.9534 82.6441 78.2713C82.3616 77.5892 82.2877 76.8386 82.4317 76.1145C82.5758 75.3904 82.9313 74.7253 83.4533 74.2033C83.9754 73.6812 84.6405 73.3257 85.3646 73.1816C86.0887 73.0376 86.8393 73.1115 87.5214 73.394C88.2035 73.6765 88.7865 74.1549 89.1967 74.7688C89.6069 75.3826 89.8259 76.1043 89.8259 76.8426ZM6.66842 83.2561C7.51068 83.2562 8.34472 83.0904 9.12289 82.7681C9.90106 82.4459 10.6081 81.9735 11.2037 81.3779C11.7993 80.7823 12.2717 80.0752 12.5939 79.2971C12.9162 78.5189 13.082 77.6849 13.0819 76.8426C13.082 76.0003 12.9162 75.1663 12.5939 74.3881C12.2716 73.6099 11.7991 72.9029 11.2035 72.3073C10.6079 71.7117 9.90085 71.2393 9.12267 70.9171C8.34448 70.5948 7.51043 70.429 6.66816 70.4291C5.82592 70.429 4.99193 70.5949 4.21381 70.9172C3.43568 71.2395 2.72866 71.7119 2.13313 72.3075C1.53759 72.9031 1.0652 73.6101 0.742933 74.3882C0.420664 75.1664 0.254829 76.0004 0.254898 76.8426C0.254829 77.6849 0.420673 78.5189 0.742958 79.297C1.06524 80.0752 1.53766 80.7822 2.13322 81.3778C2.72878 81.9734 3.43583 82.4458 4.21399 82.7681C4.99214 83.0904 5.82616 83.2562 6.66842 83.2561ZM6.66842 80.5758C5.67809 80.5758 4.72833 80.1824 4.02807 79.4822C3.3278 78.7819 2.9344 77.8321 2.9344 76.8418C2.9344 75.8515 3.3278 74.9017 4.02807 74.2015C4.72833 73.5012 5.67809 73.1078 6.66842 73.1078C7.65874 73.1078 8.6085 73.5012 9.30877 74.2015C10.009 74.9017 10.4024 75.8515 10.4024 76.8418C10.4024 77.8321 10.009 78.7819 9.30877 79.4822C8.6085 80.1824 7.65874 80.5758 6.66842 80.5758Z" fill="#2DD0ED"/>
<path d="M46.4268 13.6092C47.6953 13.6094 48.9354 13.2332 49.9901 12.5285C51.0448 11.8237 51.8668 10.8219 52.3521 9.64989C52.7555 8.67547 52.9124 7.61662 52.8089 6.5671C52.7054 5.51758 52.3447 4.50977 51.7588 3.6329C51.1729 2.75603 50.3798 2.03715 49.4498 1.53992C48.5197 1.04269 47.4814 0.782443 46.4268 0.782227C45.1583 0.782011 43.9182 1.15802 42.8633 1.86269C41.8085 2.56736 40.9864 3.56903 40.5009 4.74101C40.0155 5.91298 39.8885 7.20261 40.1361 8.44676C40.3836 9.69091 40.9946 10.8337 41.8917 11.7306C42.4873 12.3261 43.1943 12.7985 43.9725 13.1208C44.7506 13.4431 45.5846 13.609 46.4268 13.609V13.6092ZM46.4268 10.9287C45.6885 10.9286 44.9668 10.7096 44.3529 10.2995C43.739 9.88929 43.2604 9.30633 42.9778 8.62426C42.79 8.17137 42.6933 7.68589 42.6933 7.19561C42.6933 6.70532 42.79 6.21984 42.9778 5.76695C43.1653 5.314 43.4402 4.90245 43.7869 4.5558C44.1335 4.20916 44.5451 3.93422 44.998 3.74669C45.5081 3.53543 46.0587 3.43991 46.6101 3.46701C47.1615 3.49411 47.7001 3.64316 48.1869 3.90342C48.6738 4.16367 49.0969 4.52867 49.4258 4.97211C49.7547 5.41555 49.9811 5.9264 50.0888 6.46788C50.1965 7.00935 50.1828 7.56797 50.0487 8.10351C49.9145 8.63904 49.6633 9.13817 49.313 9.56493C48.9628 9.9917 48.5223 10.3355 48.0232 10.5715C47.5241 10.8076 46.9789 10.93 46.4268 10.93V10.9287ZM47.4065 57.8559C46.2033 58.1156 44.9463 57.8868 43.9117 57.22C43.1401 56.7227 42.5333 56.0077 42.168 55.1654C41.8028 54.3232 41.6956 53.3915 41.8599 52.4883C42.0242 51.5851 42.4527 50.7509 43.0912 50.0913C43.7297 49.4317 44.5495 48.9762 45.4469 48.7826C46.6418 48.5438 47.8827 48.7845 48.9017 49.4526C49.9207 50.1207 50.6362 51.1627 50.8936 52.3537C51.1507 53.5448 50.9291 54.7892 50.2767 55.8184C49.6243 56.8475 48.5934 57.5788 47.4065 57.8546V57.8559Z" fill="#2DD0ED"/>
</svg>
