<svg width="87" height="52" viewBox="0 0 87 52" fill="none" xmlns="http://www.w3.org/2000/svg">
<path d="M43 51H45.4028C47.1133 51 48.724 50.2179 49.7584 48.8832L65 29.2373L80.2416 48.8832C81.276 50.2159 82.8867 51 84.5972 51H87L67.5555 25.9414L86.1285 2H83.7257C82.0152 2 80.4045 2.78208 79.37 4.11682L64.998 22.6434L50.6238 4.11482C49.5894 2.78209 47.9787 2 46.2682 2H43.8654L62.4384 25.9414L43 51Z" fill="#212121"/>
<path d="M44 27.9989V21.999C44 8.64921 32.11 -1.9226 18.342 0.295357C7.624 2.02133 0 11.7132 0 22.567V23.9989V27.9989V28.2829C0 41.3886 9.554 51.8544 21.736 51.9984C31.92 52.1184 40.514 45.3106 43.15 36.0007H41.094C39.854 36.0007 38.73 36.7107 38.192 37.8267C34.714 45.0166 26.614 49.5505 17.736 47.5105C9.552 45.6286 4 37.9607 4 29.5648V27.9989H44ZM4 23.4189C4 14.0031 9.608 6.30525 17.848 4.46328C29.596 1.83933 40 10.7032 40 21.999V23.9989H4V23.4189Z" fill="#212121"/>
</svg>
