<svg width="74" height="101" viewBox="0 0 74 101" fill="none" xmlns="http://www.w3.org/2000/svg">
<path d="M48.3434 37.0107L38.3426 46.3224L29.0593 27.5896L33.855 16.8186C35.0671 14.6701 37.0494 14.6417 38.2615 16.8186L48.3434 37.0107Z" fill="#FFA000"/>
<path d="M38.3467 46.3184L0.937866 81.1125L29.0634 27.5897L38.3467 46.3184Z" fill="#F57F17"/>
<path d="M59.309 22.7697C61.1008 21.063 62.9453 21.6387 63.4115 24.0629L73.1367 80.6423L40.8803 100.007C39.7493 100.64 36.7494 100.887 36.7494 100.887C36.7494 100.887 34.0212 100.555 32.9753 99.9791L0.937866 81.1125L59.309 22.7697Z" fill="#FFCA28"/>
<path d="M29.0634 27.5897L0.937866 81.1124L13.4723 2.88158C13.9426 0.457387 15.3168 0.210103 16.5573 2.35863L29.0634 27.5897Z" fill="#FFA000"/>
</svg>
