<svg width="116" height="45" viewBox="0 0 116 45" fill="none" xmlns="http://www.w3.org/2000/svg">
<path d="M6.34744 0.00730037C5.33757 0.0910129 4.45594 0.892396 5.7157 2.2342C8.13551 3.5832 3.32921 4.5759 4.73246 5.47843C5.17994 6.42898 4.69663 7.48802 3.38823 7.65845C1.47183 7.82167 1.65347 10.4046 3.52122 9.05085C5.60543 8.39795 3.8815 9.309 2.89898 9.49623C0.693182 10.1299 -0.809892 12.3048 0.471758 14.2923C1.69747 17.0287 2.02408 20.0811 2.97498 22.9279C4.54847 27.3062 6.84744 31.4722 9.83391 35.0704C11.2517 37.1107 13.3246 38.5605 15.2726 40.0727C17.189 41.2993 19.323 42.5264 21.5045 43.1528C25.3787 44.5523 29.5363 44.6832 33.6074 45C36.088 44.9952 38.5778 44.8226 41.0268 44.3905C43.2302 44.6258 44.8157 42.7665 46.8075 43.7482C48.0138 42.6921 49.7717 43.1521 50.978 42.384C51.8705 39.3883 47.9127 41.7901 46.6603 40.3259C45.2983 41.9053 44.1554 40.1526 42.504 40.6447C39.6927 40.7839 42.7171 39.4016 42.6465 38.1318C41.1557 37.0036 39.4722 39.6808 38.5188 40.4009C36.1647 39.9808 33.8338 39.3204 31.6742 38.3146C29.213 37.0496 26.7974 35.5447 25.0147 33.4108C23.1494 31.2312 21.0875 29.0272 20.2363 26.2284C18.4366 21.6077 18.5537 16.6048 18.0941 11.7513C18.2643 8.46516 21.78 12.1049 23.3 10.9168C22.7796 9.2125 20.0062 8.67301 18.4741 7.99131C16.9954 7.8905 16.4566 6.58264 14.8831 6.47702C14.9585 4.65275 11.9919 5.65655 10.9121 4.35795C11.9749 1.65035 7.39118 4.42224 7.74868 2.07949C8.49529 0.556458 7.35732 -0.0764122 6.34744 0.00730037ZM6.36169 0.237022C6.6014 0.17799 6.87708 0.225471 7.15494 0.443303C8.47306 2.19557 4.73052 0.242348 6.0292 1.9154C5.23941 1.54994 5.64259 0.414126 6.36169 0.237022ZM101.935 1.10434C101.772 1.10434 101.346 1.3236 100.658 1.77007C99.8065 2.31255 98.9079 2.7403 97.9692 3.04994C97.3807 3.24917 97.0905 3.52679 97.0905 3.88445C97.0905 4.13168 97.2945 4.32427 97.7079 4.46109C98.5859 4.74674 99.1621 5.14073 99.4369 5.64721C99.6388 6.04327 99.7409 6.74624 99.7409 7.76159V23.9781C99.7409 25.3991 99.3937 26.1962 98.7054 26.3691C97.9394 26.5659 97.5559 26.857 97.5559 27.2411C97.5559 27.4019 97.5696 27.5297 97.5939 27.6161C97.6547 27.8634 98.0632 27.9551 98.8147 27.8927C101.799 27.6575 103.918 27.5995 105.17 27.7099C105.571 27.7483 105.816 27.7302 105.911 27.663C106.006 27.5958 106.054 27.4189 106.054 27.1333C106.054 26.7732 105.759 26.556 105.17 26.4816C104.217 26.3832 103.609 26.2465 103.346 26.0737C102.972 25.8265 102.767 25.3094 102.743 24.5172C102.719 23.7251 102.71 23.1183 102.71 22.6982C102.71 22.1053 103.005 21.6462 103.593 21.3246C104.118 20.9525 104.486 20.7667 104.7 20.7667C104.875 20.7667 105.02 20.8699 105.132 21.0667C106.511 23.3687 108.192 25.5697 110.172 27.6724C110.471 27.982 110.975 28.0671 111.678 27.9302C113.095 27.8198 114.239 27.7594 115.117 27.7474C115.705 27.7234 116 27.4903 116 27.0582C116 26.7126 115.93 26.4999 115.791 26.4206C115.652 26.3414 115.299 26.2987 114.722 26.2987C113.946 26.2987 113.109 25.9226 112.219 25.1689C110.828 23.9711 109.349 22.193 107.783 19.8431C107.357 19.1878 107.146 18.7735 107.146 18.6007C107.146 18.4903 107.194 18.3985 107.293 18.3241C108.646 16.9895 109.921 16.0534 111.112 15.5206C111.966 15.1245 112.873 14.9049 113.839 14.8689C114.454 14.8329 114.76 14.6045 114.76 14.1844C114.76 13.738 114.565 13.5073 114.176 13.4953C112.987 13.4953 111.789 13.4885 110.585 13.4765C108.856 13.4645 107.54 13.3997 106.638 13.2749C106.237 13.2125 106.014 13.4007 105.978 13.8328C105.953 14.2649 106.162 14.5044 106.6 14.5548C107.614 14.6916 108.12 14.9244 108.12 15.258C108.12 15.4429 107.97 15.6938 107.669 16.0035C106.151 17.302 104.876 18.3498 103.835 19.1539C103.446 19.4756 103.158 19.6368 102.971 19.6368C102.796 19.6368 102.705 19.4756 102.705 19.1539L102.672 7.54124C102.672 6.01942 102.678 4.80573 102.691 3.9032C102.703 2.5926 102.71 1.97901 102.71 2.06542C102.71 1.42213 102.449 1.10434 101.935 1.10434ZM59.0196 1.23561C58.8202 1.23561 58.3414 1.45487 57.5899 1.90133C56.6755 2.47022 55.7906 2.89122 54.9394 3.16246C54.3752 3.34729 54.0939 3.62959 54.0939 4.00165C54.0939 4.24889 54.289 4.43679 54.6782 4.57361C55.4175 4.83285 55.9324 5.20018 56.2266 5.67065C56.5209 6.14112 56.6731 6.87784 56.6731 7.8788V24.6673C56.6731 25.6802 56.3305 26.2916 55.6472 26.4957C54.9638 26.6997 54.6259 26.9481 54.6259 27.2458C54.6259 27.5794 54.6825 27.7855 54.8017 27.8599C54.9208 27.9319 55.2385 27.9431 55.7517 27.8927C58.3101 27.6815 60.4492 27.6616 62.1783 27.8224C62.7426 27.8824 63.0238 27.6652 63.0238 27.1708C63.0238 26.8131 62.745 26.6025 62.1783 26.5425C61.2639 26.4321 60.6173 26.2036 60.2404 25.8627C59.8634 25.5219 59.6751 24.9756 59.6751 24.2219L59.6039 7.65376C59.5893 6.46798 59.6006 5.25865 59.6371 4.03447C59.6882 2.74787 59.7131 2.12753 59.7131 2.17794C59.7131 1.54664 59.4841 1.23561 59.0196 1.23561ZM34.0206 3.1859C33.882 3.20991 33.7846 3.33979 33.7214 3.57502C33.5974 3.95908 33.7857 4.2613 34.2866 4.48454C35.0868 4.84459 35.6359 5.24545 35.9301 5.68472C36.2244 6.12398 36.3719 6.75325 36.3719 7.56937V23.453C36.3719 25.4453 35.757 26.5089 34.5289 26.6457C33.9914 26.6961 33.7214 26.8772 33.7214 27.1989C33.7214 27.7078 33.989 27.925 34.5289 27.8505C36.4574 27.5913 38.9076 27.5825 41.8771 27.8177C42.9033 27.9041 43.4546 27.7429 43.53 27.3348C43.6054 26.8668 43.3354 26.6003 42.7225 26.5378C41.5212 26.389 40.7384 26.221 40.3761 26.0362C39.9116 25.813 39.6778 25.3897 39.6778 24.7704V16.4254C39.6778 16.267 39.7889 16.1816 40.0151 16.1816C42.0069 16.1816 43.45 16.2354 44.3328 16.341C45.2156 16.4466 45.8214 17.2752 46.1473 18.8211C46.2372 19.2291 46.4525 19.4103 46.8028 19.3743C47.2283 19.3503 47.4372 19.1802 47.425 18.8586C47.2985 16.163 47.412 13.973 47.7622 12.2904C47.8255 11.9928 47.6416 11.8002 47.216 11.7137C46.715 11.6033 46.4248 11.7959 46.3373 12.2904C46.1986 13.1953 46.058 13.7527 45.9145 13.9688C45.771 14.1848 45.4872 14.3169 45.0738 14.3673C42.9555 14.5041 41.3403 14.5803 40.2241 14.5923C39.8617 14.6043 39.6826 14.4701 39.6826 14.1844V5.77848C39.6826 5.49284 39.7414 5.307 39.8678 5.22058C40.0697 5.08376 40.4985 5.01899 41.1503 5.01899C43.9957 5.01899 45.7695 5.07266 46.4845 5.18308C47.1484 5.26949 47.684 5.52719 48.0852 5.94725C48.4257 6.30491 48.7818 6.93407 49.1587 7.8366C49.2949 8.17025 49.54 8.33824 49.8902 8.33824C50.2404 8.33824 50.4127 8.14565 50.4127 7.76159C50.4614 5.8077 50.5929 4.41721 50.807 3.58909C50.8191 3.53868 50.8258 3.4921 50.8307 3.42969C50.8307 3.24486 50.411 3.173 49.572 3.22341C47.0524 3.37223 44.0623 3.44844 40.6041 3.44844C37.6711 3.44844 35.8085 3.38573 35.0181 3.26091C34.4782 3.1745 34.1471 3.1499 34.0206 3.1859ZM9.22116 3.62659C9.55678 3.6968 9.67264 3.8945 8.75092 4.01572L8.38042 3.99696C8.33178 3.6141 8.88555 3.55638 9.22116 3.62659ZM8.85067 4.90647C9.51703 5.19452 10.8832 5.32789 11.1069 6.0504C9.74256 5.34949 11.3784 6.89495 10.2329 6.86614C9.61518 6.87334 8.47128 5.56417 8.85067 4.90647ZM8.50867 5.99414C10.053 7.15351 7.64809 5.9935 6.67044 6.72081C5.131 6.87443 8.35789 5.86452 8.50867 5.99414ZM12.5889 6.68799C12.7859 6.7417 12.7859 6.92566 12.4606 7.31152C13.6572 8.72293 12.7291 8.24684 11.9144 7.24589C12.6294 7.73316 12.0779 9.83723 10.9786 8.38981C10.2004 6.95919 9.70771 7.92616 10.5321 8.90551C9.7223 7.40049 7.37799 8.04344 5.66345 8.61953C4.5569 8.49951 8.53896 7.68639 8.96942 7.49436C9.63517 7.50696 11.9977 6.52687 12.5889 6.68799ZM17.3863 8.28198C17.8754 8.27575 18.3578 8.29394 18.8351 8.33355C19.6011 9.21448 18.2551 10.7058 16.8543 10.8042C15.1519 11.4331 13.4192 11.587 11.8384 11.7934C9.81012 11.5414 8.35367 13.3422 6.25245 13.5703C6.8118 12.5477 5.79292 13.2175 4.72771 13.1671C5.27004 15.2314 0.975176 12.6185 3.51172 12.1216C1.60992 11.4543 1.58332 13.4267 1.78274 14.5501H1.6545C-0.0867979 12.337 1.84985 11.4344 4.05322 11.1512C3.63492 12.1713 4.65487 12.4994 5.63495 12.6842C7.22303 12.2521 4.59031 11.9742 5.7917 11.5637C6.45076 11.4437 3.69055 10.9122 5.9912 10.6073C8.35021 10.2161 10.4726 9.3012 12.8121 8.82112C14.3953 8.51148 15.919 8.30066 17.3863 8.28198ZM16.8638 8.80706C16.6556 8.74315 16.1714 8.87168 15.9233 9.51498C16.1033 9.92064 16.1926 9.39635 16.1561 9.25713C17.0061 9.12871 17.0721 8.87097 16.8638 8.80706ZM11.9571 9.66969C11.2765 9.63878 10.1614 9.78416 9.76741 10.251C10.2684 10.4767 10.8193 9.62667 11.5391 10.162C12.8828 9.90991 12.6378 9.70059 11.9571 9.66969ZM21.6755 9.79158C22.0157 9.73675 23.0692 10.125 22.6968 10.7761C22.4414 10.8481 22.485 10.4681 22.2978 10.4057C21.5262 10.0178 21.4714 9.82448 21.6755 9.79158ZM8.48017 10.6917C8.30229 10.6915 8.15995 10.771 8.14292 10.9871L8.48492 11.2965C9.85108 11.4063 9.0138 10.6923 8.48017 10.6917ZM7.71543 11.3106C7.46182 11.274 7.22683 11.4127 7.09794 11.8825C7.33627 11.8249 7.71482 11.9606 7.94343 12.131C9.38437 13.1031 8.47626 11.4203 7.71543 11.3106ZM16.9826 11.5403C18.2473 11.296 17.8783 14.5271 17.4718 15.5206C18.2379 15.0045 18.0904 17.9189 17.8423 19.0039C18.2606 18.4494 18.4328 19.9011 17.9658 20.9261C18.0047 20.758 18.9777 20.6116 18.2603 21.8262C17.7131 20.6356 17.4754 24.2481 17.8281 22.6279C18.7936 21.0965 18.5408 22.5464 18.8351 23.2233C19.0248 24.6275 19.6594 25.9227 19.8515 27.1661C20.7441 28.0542 19.4714 27.452 19.4763 28.6522C19.7657 28.3042 20.9466 29.1411 20.9393 30.3869C21.0366 28.4114 21.1515 29.9248 22.1268 30.4384C22.9415 31.7346 23.5518 32.9474 24.7677 34.0155C25.7162 35.0981 24.7082 34.3376 25.1192 35.0001C26.1261 36.7619 28.4586 37.7834 30.4772 38.2443C31.3624 39.3821 32.6912 40.5138 34.4909 39.9977C32.9685 40.9242 38.7786 41.1762 36.8136 41.6995C35.7922 42.2468 34.823 41.3468 33.8259 41.3948C32.4397 40.9243 30.2484 39.4825 28.7624 40.4618C26.7074 41.7316 29.8156 39.046 28.1497 40.2462C26.4619 42.2457 27.0032 39.0021 25.3567 39.9742C25.2619 39.6646 23.8932 39.5792 24.9292 39.0319C24.0002 38.9743 24.5794 38.9155 24.915 38.1833C24.5161 38.1017 22.2992 38.1791 21.4285 37.4614C20.4022 36.1436 21.6077 36.6786 22.6778 36.8707C20.9608 37.1683 23.2684 38.1421 24.4162 37.602C23.9007 37.386 23.3106 36.2861 21.9463 35.3235C20.0396 34.1906 18.4705 33.65 16.4933 32.745C14.3532 31.492 16.9723 32.3006 17.7141 32.9607C19.8493 33.8896 19.0089 31.6569 17.7711 31.076C16.414 31.1312 16.0652 29.5925 14.9781 29.6789C16.6951 29.9502 17.8871 29.2407 15.9756 27.5364C14.1589 25.4433 16.7343 29.1157 15.6763 28.6429C15.1948 28.0164 15.5556 27.1151 14.0186 26.791C14.0016 27.3695 13.808 28.2658 13.4724 27.0489C13.0443 27.1209 12.5543 27.5846 12.2041 26.3316C12.5349 24.9082 10.776 24.5831 10.5036 23.6734C12.0236 24.6311 12.7115 23.876 11.6341 22.8295C10.8924 21.5501 10.7888 22.5534 10.3754 22.731C8.8846 24.2337 10.2389 20.1389 9.57741 21.3199C8.91105 21.3007 9.2945 22.0437 9.30666 22.9654C7.12761 22.4326 9.83577 24.0972 10.4656 25.0142C9.47097 23.9868 9.63965 25.7843 8.80792 24.9298C8.52581 24.1737 8.48648 22.9798 7.10269 22.7685C8.67617 22.2309 6.16679 21.1384 6.37594 21.0808C7.27577 20.2719 7.39076 19.1601 8.47542 20.8979C7.10136 20.7875 8.43662 23.1366 8.77467 22.4357C8.72116 21.2331 9.33634 19.9709 7.25943 19.4165C6.64901 20.2278 5.59684 17.827 6.81769 18.3335C6.65718 16.7397 8.71125 17.6793 8.57992 16.988C9.64026 16.5295 7.29629 15.0492 8.56092 14.4563C9.52885 15.0372 12.0394 13.5423 10.3517 13.3359C11.4071 13.3263 12.2538 13.7826 12.3656 12.7264C13.2193 12.9088 15.5284 13.6346 13.4296 12.492C14.1008 12.1631 15.5194 11.8851 16.3366 11.8731C16.5886 11.6796 16.8019 11.5752 16.9826 11.5403ZM89.063 12.8811C87.4482 12.8811 86.1573 13.237 85.1918 13.9547C84.1509 14.6988 83.6338 15.7354 83.6338 17.0724C83.6338 18.1597 83.9674 19.0263 84.6313 19.6696C85.2442 20.2745 86.4647 20.9799 88.2935 21.784C89.5582 22.3289 90.4113 22.8058 90.849 23.2139C91.2503 23.574 91.4523 24.0172 91.4523 24.55C91.4523 25.7622 90.5698 26.3691 88.8018 26.3691C86.7079 26.3691 85.1901 25.5608 84.2513 23.9406C84.0373 23.5829 83.7787 23.4217 83.4771 23.4577C83.1755 23.4817 83.0259 23.8197 83.0259 24.475C83.0259 25.9969 83.0781 26.8479 83.1779 27.0207C83.3408 27.2056 83.9307 27.407 84.9448 27.6302C86.1219 27.8774 87.3017 28.0053 88.4788 28.0053C90.2468 28.0053 91.6421 27.6155 92.6635 26.8426C93.6849 26.0697 94.193 25.0308 94.193 23.7202C94.193 22.5345 93.8186 21.5874 93.072 20.8745C92.4956 20.332 91.4044 19.716 89.7993 19.0367C88.2696 18.3814 87.301 17.8977 86.8876 17.5881C86.4231 17.228 86.1893 16.7514 86.1893 16.1441C86.1893 15.0567 87.0468 14.5126 88.7638 14.5126C90.2813 14.5126 91.5359 15.3073 92.5258 16.9036C92.6644 17.1268 92.9388 17.1963 93.3522 17.1099C93.7389 17.0115 93.916 16.8816 93.8795 16.7207C93.5658 15.4102 93.357 14.4093 93.2572 13.7156C93.2183 13.4804 92.7488 13.281 91.8465 13.1202C91.0075 12.9618 90.0772 12.8811 89.063 12.8811ZM73.4167 12.9561C71.9381 12.9561 70.4001 13.3751 68.795 14.2032C67.2653 14.9953 66.5008 15.6872 66.5008 16.2801C66.5008 17.2306 67.0158 17.6584 68.0445 17.5599C68.9468 17.4855 69.6387 16.9705 70.1202 16.0175C70.6018 15.0646 71.1146 14.5876 71.6545 14.5876C73.5466 14.5876 74.4516 15.6066 74.3762 17.6349L74.343 18.8211C74.3308 19.3395 73.8974 19.6823 73.0462 19.8431C68.0826 20.772 65.603 22.3035 65.603 24.4422C65.603 25.568 65.9773 26.4592 66.7288 27.1145C67.417 27.7074 68.2745 28.0053 69.3033 28.0053C70.3928 28.0053 71.4796 27.7522 72.557 27.2458C73.6343 26.7393 74.2311 26.4816 74.343 26.4816C74.4937 26.4816 74.7545 26.719 75.1314 27.1895C75.506 27.66 75.9394 27.8927 76.4282 27.8927C77.0046 27.8927 77.7737 27.6308 78.7319 27.1051C79.6901 26.5794 80.1711 26.1876 80.1711 25.9284C80.1711 25.4459 79.9874 25.2041 79.6201 25.2017C79.5569 25.2017 79.3348 25.2331 78.9457 25.2955C78.5565 25.3579 78.2958 25.3892 78.1572 25.3892C77.4568 25.3892 77.1095 24.9885 77.1217 24.1844L77.1977 16.5379C77.222 14.1495 75.9606 12.9561 73.4167 12.9561ZM16.8448 13.5234C16.5251 13.6139 16.0251 15.2914 16.3698 15.8909C17.1286 17.0839 17.8878 12.9588 17.2628 14.3438C16.9272 16.1081 16.5841 15.3708 17.0681 14.0578C17.0389 13.636 16.9514 13.4932 16.8448 13.5234ZM6.16695 15.0846C6.28782 15.0792 6.50009 15.0888 6.82719 15.1221C8.51498 15.0645 7.97307 16.0465 7.01244 16.1113C6.99055 16.1737 6.13244 15.9081 6.48994 15.6753C8.80518 15.9651 5.32081 15.1221 6.16695 15.0846ZM10.4181 15.6659C10.5589 15.9773 10.7976 16.5634 10.6176 16.8239C11.0919 17.2872 12.712 18.1116 11.4109 16.9786C12.2402 16.8154 11.3013 16.5564 10.8076 16.1675C10.2349 15.319 10.2774 15.3545 10.4181 15.6659ZM4.91296 15.7081C5.296 15.6934 5.68918 15.8874 4.94621 16.3363C4.15703 15.9463 4.52992 15.7228 4.91296 15.7081ZM15.7096 16.8004C15.685 16.7659 15.6721 16.7965 15.7001 16.9645C15.9865 17.5982 15.7833 16.904 15.7096 16.8004ZM9.9574 17.4334C10.1811 17.7526 10.7868 17.6113 11.0689 17.9209C13.6176 18.9627 10.8402 17.2461 9.9574 17.4334ZM9.55841 17.6303C9.43302 17.6584 9.45554 17.8228 9.73416 18.2022C9.90926 18.5935 10.3315 18.6267 10.6841 18.7179C13.4189 19.9622 10.1017 17.5084 9.55841 17.6303ZM4.85121 17.8412C5.26677 17.9081 5.76658 18.1292 5.21696 18.3429L4.99371 18.2585C4.10482 17.8588 4.43565 17.7743 4.85121 17.8412ZM8.71767 18.1694C8.59314 18.1758 8.69996 18.3603 9.27816 18.8679L9.65341 19.2477C11.5503 19.7608 9.09124 18.1502 8.71767 18.1694ZM8.46117 18.671C8.36325 18.668 9.24316 19.5968 8.83642 19.5806C7.4283 18.5652 8.00316 19.2833 8.79842 20.0634C9.66177 21.3284 10.3751 19.3099 8.96942 19.0555C8.63502 18.7782 8.49381 18.6721 8.46117 18.671ZM14.4366 19.9931C14.4187 20.0511 14.4156 20.2468 14.4509 20.6729C14.6861 20.8835 14.4903 19.8193 14.4366 19.9931ZM15.6811 20.1009C15.3777 20.1027 15.1499 22.2254 15.8996 22.6701C16.2085 23.5462 16.5382 23.1856 16.6501 22.1919C15.9254 22.2063 16.9484 20.6352 15.9756 20.9448C15.8905 20.3333 15.7822 20.1003 15.6811 20.1009ZM17.7758 20.1478C17.7214 20.0287 17.5905 20.2891 17.5431 21.1605V21.409C17.8057 20.7645 17.8302 20.2669 17.7758 20.1478ZM3.57347 20.2181C3.76568 20.1725 4.8612 22.3623 4.71346 22.9654C4.04224 22.735 4.07476 21.6984 3.76347 21.1511C3.54763 20.4976 3.50941 20.2334 3.57347 20.2181ZM11.5771 20.326C11.3996 20.8133 11.954 22.4112 12.2896 22.9561C13.1457 24.2547 12.7616 22.2459 13.7004 23.5421C13.1848 22.4043 13.9428 23.0237 13.8334 22.5388C13.595 22.0491 11.2865 19.4573 12.3371 21.4136C13.288 23.7468 11.7401 21.1205 11.5771 20.326ZM3.12223 20.7057C3.37923 20.8692 4.06804 21.9753 4.19572 22.5904C5.27795 23.877 4.85106 24.5858 5.9722 26.1628C4.53004 25.2651 4.25758 23.1221 3.34073 21.7371C2.9659 20.8487 2.96803 20.6076 3.12223 20.7057ZM73.8632 20.9964C73.9869 21.0057 74.0846 21.0363 74.1625 21.0855C74.3205 21.1839 74.3931 21.3853 74.381 21.6949L74.343 24.7423C74.343 25.1263 73.955 25.4555 73.1792 25.7268C72.5153 25.962 71.8687 26.0784 71.2412 26.0784C69.675 26.0784 68.89 25.3687 68.89 23.9453C68.89 22.5339 70.4009 21.5621 73.4215 21.0292C73.5905 20.998 73.7395 20.9871 73.8632 20.9964ZM11.0831 24.7376C11.6633 24.9173 11.3127 26.79 12.1851 27.0442C14.1331 29.5526 10.8358 27.1178 9.73416 26.8754C9.87521 26.8682 8.7562 26.5615 9.24016 26.4535C8.88753 26.0958 8.09831 24.7969 9.90041 25.6658C11.3328 26.3739 11.453 25.8962 10.7696 24.7704C10.8967 24.7173 11.0003 24.7119 11.0831 24.7376ZM4.50921 25.1033C4.55744 24.8638 5.54938 26.4386 5.72995 27.0957C6.27471 28.8072 7.97975 29.793 8.15242 30.926C10.0421 32.0014 9.07232 33.7555 10.6604 34.2499C11.3657 33.8971 11.4351 36.3623 12.9356 35.8486C12.1015 36.2351 13.2868 36.6921 13.7051 37.4098C14.6512 37.2826 16.7246 39.4668 14.6599 38.7131C13.7892 38.5307 13.1947 37.6368 12.5794 37.0535C10.753 35.9085 9.56764 33.9929 8.56567 32.159C7.27429 30.2315 5.71977 28.3042 4.83696 26.0503C4.57796 25.4652 4.49314 25.1831 4.50921 25.1033ZM19.0203 26.5519C18.924 26.6006 18.919 26.8854 19.2008 27.5083L19.3671 27.7755C19.5966 27.0389 19.1808 26.4708 19.0203 26.5519ZM12.4511 28.7554C12.9886 28.8709 13.7972 29.1559 14.1231 29.2195C14.2131 29.6012 12.2809 29.5419 13.9711 30.2884C12.9862 30.262 12.6889 30.1888 14.0946 31.0385C13.5426 31.4754 15.2076 31.8225 14.6361 32.4778C16.3312 33.7836 14.3301 32.8091 13.6054 32.2762C13.1773 31.9834 11.433 31.4014 11.7054 31.0198C13.7628 32.0855 12.2278 30.9731 11.3206 30.265C12.9792 30.6658 9.9916 29.0525 11.5724 29.4774C12.0418 29.5902 10.8616 28.5215 12.4084 29.2992C11.6472 28.6919 11.9137 28.6399 12.4511 28.7554ZM22.768 32.8482C22.5561 32.7744 22.7658 33.5839 23.2383 34.0718C24.2451 35.2552 23.4792 33.4 23.129 33.2607C22.9588 32.9961 22.8387 32.8728 22.768 32.8482ZM13.8856 34.0108C14.4462 34.0168 15.3627 34.2664 15.9281 34.5641C18.4087 35.1089 15.4004 35.7654 14.4081 35.0141L13.9901 34.925C13.1231 34.2457 13.325 34.0048 13.8856 34.0108ZM16.8496 34.2687C17.0559 34.2252 17.9936 34.6059 18.3933 34.9719C19.5825 35.1304 19.5878 35.6666 18.2746 35.3329C18.0411 35.1913 17.6647 35.1992 17.5431 34.9016C16.8664 34.4749 16.7258 34.2948 16.8496 34.2687ZM18.4313 34.2874C18.8064 34.2811 19.4207 34.3864 19.614 34.6672C22.2187 35.0801 19.4492 35.2597 18.6783 34.5828C17.9207 34.4112 18.0562 34.2938 18.4313 34.2874ZM18.4313 35.7361C18.7129 35.6747 20.5517 36.4239 19.2293 36.2565L18.8446 36.1346C18.4171 35.87 18.3375 35.7566 18.4313 35.7361ZM27.195 36.1721C27.277 36.2006 27.3605 36.2748 27.4182 36.4206C26.7342 36.4098 26.9487 36.0867 27.195 36.1721ZM18.4408 36.8753C18.9751 36.9263 21.0306 38.0347 19.2103 37.527L18.9301 37.4192L18.6118 37.2738C18.2513 36.9576 18.2627 36.8583 18.4408 36.8753ZM22.863 39.7961C23.1099 39.7573 25.1377 39.9389 23.414 39.9227C22.8954 39.8447 22.7807 39.809 22.863 39.7961ZM17.4718 40.0914C17.6178 40.1237 17.8492 40.1941 18.1891 40.3165C20.3657 41.6439 22.875 42.346 25.2 43.3685C27.2428 43.6325 29.3969 44.1661 31.4082 43.7389C33.0862 44.567 34.8267 43.5244 36.5096 44.2733C32.7911 44.9886 28.9656 44.2056 25.2617 43.6967C22.927 43.4062 20.842 42.4498 18.7116 41.5401C18.4027 41.3961 18.1105 41.2159 17.8138 41.0478C16.3498 40.2461 16.5312 40.0824 17.9563 40.8697C18.4597 41.2658 22.0312 42.7087 20.3313 41.7558C19.6886 41.5982 16.4499 39.866 17.4718 40.0914ZM31.0092 40.729C31.1758 40.8347 31.1815 41.1794 31.1754 41.6151C30.0567 42.8345 30.7238 41.1167 30.0307 41.7792C29.3911 42.2833 29.5428 41.479 29.8882 41.2869C30.5144 40.7577 30.8426 40.6234 31.0092 40.729ZM40.3333 41.1182C41.332 41.2031 42.4743 41.4307 43.1358 41.4463C42.7345 42.2793 40.2544 41.5139 39.1648 41.7323L38.6946 41.7042L38.4048 41.6573C38.4815 41.0908 39.3347 41.0333 40.3333 41.1182ZM48.9212 41.3854C51.504 41.383 49.0915 41.7559 47.9047 41.7511C46.5574 41.439 48.5151 41.4478 48.9212 41.3854ZM33.3651 41.7183C33.5719 41.6952 33.6425 41.856 33.0564 42.2293L32.8427 42.2949C32.8135 41.9445 33.1584 41.7414 33.3651 41.7183ZM32.3819 41.8683C32.4199 41.9263 32.335 42.0923 32.0067 42.4356C31.0509 42.4968 32.2679 41.6943 32.3819 41.8683ZM23.0625 42.1308C23.2958 42.073 25.8081 42.7881 26.131 42.7215C28.6918 43.6601 24.6023 43.0269 23.756 42.5012C23.162 42.2533 22.9848 42.1501 23.0625 42.1308ZM35.4361 42.2527C35.4417 42.3157 35.3084 42.4633 34.9326 42.7309L34.6191 42.9325C34.1741 42.6283 35.4195 42.0638 35.4361 42.2527Z" fill="black"/>
</svg>
