<svg width="14" height="14" viewBox="0 0 14 14" fill="none" xmlns="http://www.w3.org/2000/svg">
<g clip-path="url(#clip0_1_2)">
<path d="M9.33333 7.525V9.975C9.33333 12.0167 8.51666 12.8333 6.475 12.8333H4.025C1.98333 12.8333 1.16666 12.0167 1.16666 9.975V7.525C1.16666 5.48333 1.98333 4.66667 4.025 4.66667H6.475C8.51666 4.66667 9.33333 5.48333 9.33333 7.525Z" stroke="black" stroke-width="1.5" stroke-linecap="round" stroke-linejoin="round"/>
<path d="M12.8333 4.025V6.475C12.8333 8.51667 12.0167 9.33334 9.975 9.33334H9.33333V7.525C9.33333 5.48333 8.51666 4.66667 6.475 4.66667H4.66666V4.025C4.66666 1.98333 5.48333 1.16667 7.525 1.16667H9.975C12.0167 1.16667 12.8333 1.98333 12.8333 4.025Z" stroke="black" stroke-width="1.5" stroke-linecap="round" stroke-linejoin="round"/>
</g>
<defs>
<clipPath id="clip0_1_2">
<rect width="14" height="14" fill="white"/>
</clipPath>
</defs>
</svg>
